<mxfile host="app.diagrams.net" agent="Mozilla/5.0 (X11; Linux x86_64) AppleWebKit/537.36 (KHTML, like Gecko) Chrome/130.0.0.0 Safari/537.36" version="24.8.3">
  <diagram name="State diagram" id="xRCmyC6bVrr0JvFnWEVT">
    <mxGraphModel dx="1434" dy="-27" grid="1" gridSize="10" guides="1" tooltips="1" connect="1" arrows="1" fold="1" page="1" pageScale="1" pageWidth="1169" pageHeight="827" math="0" shadow="0">
      <root>
        <mxCell id="0" />
        <mxCell id="1" parent="0" />
        <mxCell id="Qwt8mmncDzzDobY5ciWi-2" value="ON" style="rounded=1;whiteSpace=wrap;html=1;arcSize=24;shadow=0;comic=0;labelBackgroundColor=none;fontFamily=Verdana;fontSize=12;align=center;" vertex="1" parent="1">
          <mxGeometry x="690" y="1281" width="120" height="60" as="geometry" />
        </mxCell>
        <mxCell id="Qwt8mmncDzzDobY5ciWi-3" style="rounded=0;orthogonalLoop=1;jettySize=auto;html=1;entryX=1;entryY=0.25;entryDx=0;entryDy=0;exitX=0.25;exitY=1;exitDx=0;exitDy=0;" edge="1" parent="1" source="Qwt8mmncDzzDobY5ciWi-4" target="Qwt8mmncDzzDobY5ciWi-7">
          <mxGeometry relative="1" as="geometry">
            <mxPoint x="720" y="1221" as="sourcePoint" />
            <mxPoint x="600" y="1301" as="targetPoint" />
          </mxGeometry>
        </mxCell>
        <mxCell id="Qwt8mmncDzzDobY5ciWi-4" value="TURNING ON" style="rounded=1;whiteSpace=wrap;html=1;arcSize=24;shadow=0;comic=0;labelBackgroundColor=none;fontFamily=Verdana;fontSize=12;align=center;" vertex="1" parent="1">
          <mxGeometry x="690" y="1141" width="120" height="60" as="geometry" />
        </mxCell>
        <mxCell id="Qwt8mmncDzzDobY5ciWi-5" value="" style="edgeStyle=orthogonalEdgeStyle;rounded=0;orthogonalLoop=1;jettySize=auto;html=1;endArrow=open;endFill=0;endSize=10;" edge="1" parent="1" source="Qwt8mmncDzzDobY5ciWi-7" target="Qwt8mmncDzzDobY5ciWi-8">
          <mxGeometry relative="1" as="geometry" />
        </mxCell>
        <mxCell id="Qwt8mmncDzzDobY5ciWi-6" value="" style="edgeStyle=orthogonalEdgeStyle;rounded=0;orthogonalLoop=1;jettySize=auto;html=1;" edge="1" parent="1" source="Qwt8mmncDzzDobY5ciWi-7" target="Qwt8mmncDzzDobY5ciWi-8">
          <mxGeometry relative="1" as="geometry" />
        </mxCell>
        <mxCell id="Qwt8mmncDzzDobY5ciWi-7" value="TURNING OFF" style="rounded=1;whiteSpace=wrap;html=1;arcSize=24;shadow=0;comic=0;labelBackgroundColor=none;fontFamily=Verdana;fontSize=12;align=center;" vertex="1" parent="1">
          <mxGeometry x="465" y="1281" width="120" height="60" as="geometry" />
        </mxCell>
        <mxCell id="Qwt8mmncDzzDobY5ciWi-8" value="OFF" style="rounded=1;whiteSpace=wrap;html=1;arcSize=24;shadow=0;comic=0;labelBackgroundColor=none;fontFamily=Verdana;fontSize=12;align=center;" vertex="1" parent="1">
          <mxGeometry x="465" y="1141" width="120" height="60" as="geometry" />
        </mxCell>
        <mxCell id="Qwt8mmncDzzDobY5ciWi-9" style="edgeStyle=orthogonalEdgeStyle;rounded=0;orthogonalLoop=1;jettySize=auto;html=1;entryX=0;entryY=0.5;entryDx=0;entryDy=0;endArrow=open;endFill=0;endSize=10;" edge="1" parent="1" source="Qwt8mmncDzzDobY5ciWi-10" target="Qwt8mmncDzzDobY5ciWi-8">
          <mxGeometry relative="1" as="geometry" />
        </mxCell>
        <mxCell id="Qwt8mmncDzzDobY5ciWi-10" value="" style="ellipse;whiteSpace=wrap;html=1;aspect=fixed;" vertex="1" parent="1">
          <mxGeometry x="360" y="1161" width="20" height="20" as="geometry" />
        </mxCell>
        <mxCell id="Qwt8mmncDzzDobY5ciWi-11" style="edgeStyle=orthogonalEdgeStyle;rounded=0;orthogonalLoop=1;jettySize=auto;html=1;endArrow=open;endFill=0;endSize=10;exitX=1;exitY=0.5;exitDx=0;exitDy=0;entryX=0;entryY=0.5;entryDx=0;entryDy=0;" edge="1" parent="1" source="Qwt8mmncDzzDobY5ciWi-8" target="Qwt8mmncDzzDobY5ciWi-4">
          <mxGeometry relative="1" as="geometry">
            <mxPoint x="590" y="1171" as="sourcePoint" />
            <mxPoint x="670" y="1171" as="targetPoint" />
          </mxGeometry>
        </mxCell>
        <mxCell id="Qwt8mmncDzzDobY5ciWi-12" value="off()" style="edgeLabel;html=1;align=center;verticalAlign=middle;resizable=0;points=[];" connectable="0" vertex="1" parent="Qwt8mmncDzzDobY5ciWi-11">
          <mxGeometry x="-0.1048" relative="1" as="geometry">
            <mxPoint x="8" y="-10" as="offset" />
          </mxGeometry>
        </mxCell>
        <mxCell id="Qwt8mmncDzzDobY5ciWi-13" style="edgeStyle=orthogonalEdgeStyle;rounded=0;orthogonalLoop=1;jettySize=auto;html=1;endArrow=open;endFill=0;endSize=10;exitX=0.5;exitY=1;exitDx=0;exitDy=0;entryX=0.5;entryY=0;entryDx=0;entryDy=0;" edge="1" parent="1" source="Qwt8mmncDzzDobY5ciWi-4" target="Qwt8mmncDzzDobY5ciWi-2">
          <mxGeometry relative="1" as="geometry">
            <mxPoint x="750" y="1221" as="sourcePoint" />
            <mxPoint x="855" y="1221" as="targetPoint" />
          </mxGeometry>
        </mxCell>
        <mxCell id="Qwt8mmncDzzDobY5ciWi-14" style="edgeStyle=orthogonalEdgeStyle;rounded=0;orthogonalLoop=1;jettySize=auto;html=1;endArrow=open;endFill=0;endSize=10;exitX=0;exitY=0.5;exitDx=0;exitDy=0;entryX=1;entryY=0.5;entryDx=0;entryDy=0;" edge="1" parent="1" source="Qwt8mmncDzzDobY5ciWi-2" target="Qwt8mmncDzzDobY5ciWi-7">
          <mxGeometry relative="1" as="geometry">
            <mxPoint x="640" y="1301" as="sourcePoint" />
            <mxPoint x="640" y="1381" as="targetPoint" />
          </mxGeometry>
        </mxCell>
        <mxCell id="Qwt8mmncDzzDobY5ciWi-15" value="on()" style="edgeLabel;html=1;align=center;verticalAlign=middle;resizable=0;points=[];" connectable="0" vertex="1" parent="Qwt8mmncDzzDobY5ciWi-14">
          <mxGeometry x="0.2816" y="-1" relative="1" as="geometry">
            <mxPoint x="17" y="11" as="offset" />
          </mxGeometry>
        </mxCell>
        <mxCell id="Qwt8mmncDzzDobY5ciWi-16" value="response time delay" style="edgeLabel;html=1;align=center;verticalAlign=middle;resizable=0;points=[];" connectable="0" vertex="1" parent="1">
          <mxGeometry x="469" y="1241" as="geometry" />
        </mxCell>
        <mxCell id="Qwt8mmncDzzDobY5ciWi-17" style="rounded=0;orthogonalLoop=1;jettySize=auto;html=1;entryX=0;entryY=0.75;entryDx=0;entryDy=0;exitX=0.75;exitY=0;exitDx=0;exitDy=0;" edge="1" parent="1" source="Qwt8mmncDzzDobY5ciWi-7" target="Qwt8mmncDzzDobY5ciWi-4">
          <mxGeometry relative="1" as="geometry">
            <mxPoint x="550" y="1271" as="sourcePoint" />
            <mxPoint x="680" y="1191" as="targetPoint" />
          </mxGeometry>
        </mxCell>
        <mxCell id="Qwt8mmncDzzDobY5ciWi-18" value="on()" style="edgeLabel;html=1;align=center;verticalAlign=middle;resizable=0;points=[];" connectable="0" vertex="1" parent="1">
          <mxGeometry x="609.9977777777777" y="1221" as="geometry" />
        </mxCell>
        <mxCell id="Qwt8mmncDzzDobY5ciWi-19" value="off()" style="edgeLabel;html=1;align=center;verticalAlign=middle;resizable=0;points=[];" connectable="0" vertex="1" parent="1">
          <mxGeometry x="669.9977777777777" y="1251" as="geometry" />
        </mxCell>
        <mxCell id="Qwt8mmncDzzDobY5ciWi-20" value="response time delay" style="edgeLabel;html=1;align=center;verticalAlign=middle;resizable=0;points=[];" connectable="0" vertex="1" parent="1">
          <mxGeometry x="805" y="1241" as="geometry" />
        </mxCell>
      </root>
    </mxGraphModel>
  </diagram>
</mxfile>
